<mxfile host="app.diagrams.net" agent="Mozilla/5.0 (Windows NT 10.0; Win64; x64) AppleWebKit/537.36 (KHTML, like Gecko) Chrome/130.0.0.0 Safari/537.36" version="24.8.3">
  <diagram name="Page-1" id="2YBvvXClWsGukQMizWep">
    <mxGraphModel dx="3850" dy="1591" grid="0" gridSize="10" guides="1" tooltips="1" connect="1" arrows="1" fold="1" page="1" pageScale="1" pageWidth="850" pageHeight="1100" math="0" shadow="0">
      <root>
        <mxCell id="0" />
        <mxCell id="1" parent="0" />
        <mxCell id="v8VGOVytLQ8regFW3jZ1-139" value="" style="rounded=0;whiteSpace=wrap;html=1;strokeColor=#66B2FF;" parent="1" vertex="1">
          <mxGeometry x="350" y="800" width="440" height="240" as="geometry" />
        </mxCell>
        <mxCell id="v8VGOVytLQ8regFW3jZ1-137" value="" style="verticalLabelPosition=bottom;verticalAlign=top;html=1;shape=mxgraph.basic.patternFillRect;fillStyle=diag;step=5;fillStrokeWidth=0.2;fillStrokeColor=#dddddd;fillColor=#1ba1e2;fontColor=#ffffff;strokeColor=#006EAF;" parent="1" vertex="1">
          <mxGeometry x="340" y="800" width="450" height="240" as="geometry" />
        </mxCell>
        <mxCell id="v8VGOVytLQ8regFW3jZ1-112" value="" style="verticalLabelPosition=bottom;verticalAlign=top;html=1;shape=mxgraph.basic.patternFillRect;fillStyle=diag;step=5;fillStrokeWidth=0.2;fillStrokeColor=#dddddd;strokeWidth=2;strokeColor=#66B2FF;" parent="1" vertex="1">
          <mxGeometry x="310" y="800" width="510" height="240" as="geometry" />
        </mxCell>
        <mxCell id="v8VGOVytLQ8regFW3jZ1-55" value="" style="endArrow=classic;html=1;rounded=0;" parent="1" edge="1">
          <mxGeometry width="50" height="50" relative="1" as="geometry">
            <mxPoint x="419" y="1480" as="sourcePoint" />
            <mxPoint x="1069.5" y="1480.0000000000005" as="targetPoint" />
            <Array as="points">
              <mxPoint x="630" y="1480" />
              <mxPoint x="870" y="1480" />
            </Array>
          </mxGeometry>
        </mxCell>
        <mxCell id="v8VGOVytLQ8regFW3jZ1-56" value="Gửi yêu cầu chat" style="edgeLabel;html=1;align=center;verticalAlign=middle;resizable=0;points=[];fontSize=25;labelBackgroundColor=#F2EEEA;horizontal=1;" parent="v8VGOVytLQ8regFW3jZ1-55" vertex="1" connectable="0">
          <mxGeometry x="-0.0079" y="2" relative="1" as="geometry">
            <mxPoint x="-20" as="offset" />
          </mxGeometry>
        </mxCell>
        <mxCell id="v8VGOVytLQ8regFW3jZ1-1" value="" style="rounded=0;whiteSpace=wrap;html=1;fillColor=#f5f5f5;fontColor=#333333;strokeColor=#666666;" parent="1" vertex="1">
          <mxGeometry x="-30" y="196" width="1340" height="2014" as="geometry" />
        </mxCell>
        <mxCell id="v8VGOVytLQ8regFW3jZ1-2" value="User" style="shape=umlActor;verticalLabelPosition=bottom;verticalAlign=top;html=1;outlineConnect=0;" parent="1" vertex="1">
          <mxGeometry x="110" y="410" width="50" height="100" as="geometry" />
        </mxCell>
        <mxCell id="v8VGOVytLQ8regFW3jZ1-3" value="&lt;font style=&quot;font-size: 20px;&quot; color=&quot;#ffffff&quot;&gt;&lt;b&gt;Fontend&lt;/b&gt;&lt;/font&gt;" style="rounded=0;whiteSpace=wrap;html=1;fillColor=#66B2FF;strokeColor=none;" parent="1" vertex="1">
          <mxGeometry x="320" y="420" width="180" height="50" as="geometry" />
        </mxCell>
        <mxCell id="v8VGOVytLQ8regFW3jZ1-4" value="&lt;font style=&quot;font-size: 20px;&quot; color=&quot;#ffffff&quot;&gt;&lt;b&gt;Backend&lt;/b&gt;&lt;/font&gt;" style="rounded=0;whiteSpace=wrap;html=1;strokeColor=none;fillColor=#66B2FF;" parent="1" vertex="1">
          <mxGeometry x="630" y="420" width="180" height="50" as="geometry" />
        </mxCell>
        <mxCell id="v8VGOVytLQ8regFW3jZ1-5" value="&lt;font size=&quot;1&quot; color=&quot;#ffffff&quot;&gt;&lt;b style=&quot;font-size: 20px;&quot;&gt;Firebase&lt;/b&gt;&lt;/font&gt;" style="rounded=0;whiteSpace=wrap;html=1;fillColor=#66B2FF;strokeColor=none;" parent="1" vertex="1">
          <mxGeometry x="990" y="420" width="180" height="50" as="geometry" />
        </mxCell>
        <mxCell id="v8VGOVytLQ8regFW3jZ1-6" value="" style="endArrow=none;dashed=1;html=1;rounded=0;" parent="1" edge="1">
          <mxGeometry width="50" height="50" relative="1" as="geometry">
            <mxPoint x="134.17000000000007" y="540.002340425532" as="sourcePoint" />
            <mxPoint x="134.17000000000007" y="637" as="targetPoint" />
          </mxGeometry>
        </mxCell>
        <mxCell id="v8VGOVytLQ8regFW3jZ1-7" value="" style="html=1;points=[[0,0,0,0,5],[0,1,0,0,-5],[1,0,0,0,5],[1,1,0,0,-5]];perimeter=orthogonalPerimeter;outlineConnect=0;targetShapes=umlLifeline;portConstraint=eastwest;newEdgeStyle={&quot;curved&quot;:0,&quot;rounded&quot;:0};fillColor=#66B2FF;fontColor=#ffffff;strokeColor=none;" parent="1" vertex="1">
          <mxGeometry x="125" y="640" width="21" height="1540" as="geometry" />
        </mxCell>
        <mxCell id="v8VGOVytLQ8regFW3jZ1-8" value="" style="endArrow=none;dashed=1;html=1;rounded=0;fillColor=#f5f5f5;strokeColor=#666666;" parent="1" edge="1">
          <mxGeometry width="50" height="50" relative="1" as="geometry">
            <mxPoint x="409" y="610" as="sourcePoint" />
            <mxPoint x="409.16999999999996" y="470" as="targetPoint" />
          </mxGeometry>
        </mxCell>
        <mxCell id="v8VGOVytLQ8regFW3jZ1-10" value="" style="html=1;points=[[0,0,0,0,5],[0,1,0,0,-5],[1,0,0,0,5],[1,1,0,0,-5]];perimeter=orthogonalPerimeter;outlineConnect=0;targetShapes=umlLifeline;portConstraint=eastwest;newEdgeStyle={&quot;curved&quot;:0,&quot;rounded&quot;:0};fillColor=#66B2FF;strokeColor=none;" parent="1" vertex="1">
          <mxGeometry x="709.5" y="610" width="21" height="190" as="geometry" />
        </mxCell>
        <mxCell id="v8VGOVytLQ8regFW3jZ1-11" value="" style="endArrow=none;dashed=1;html=1;rounded=0;fillColor=#f5f5f5;strokeColor=#666666;" parent="1" edge="1">
          <mxGeometry width="50" height="50" relative="1" as="geometry">
            <mxPoint x="719.1700000000001" y="609" as="sourcePoint" />
            <mxPoint x="719.3399999999999" y="469" as="targetPoint" />
          </mxGeometry>
        </mxCell>
        <mxCell id="v8VGOVytLQ8regFW3jZ1-12" value="" style="html=1;points=[[0,0,0,0,5],[0,1,0,0,-5],[1,0,0,0,5],[1,1,0,0,-5]];perimeter=orthogonalPerimeter;outlineConnect=0;targetShapes=umlLifeline;portConstraint=eastwest;newEdgeStyle={&quot;curved&quot;:0,&quot;rounded&quot;:0};fillColor=#66B2FF;strokeColor=none;" parent="1" vertex="1">
          <mxGeometry x="399.5" y="610" width="21" height="190" as="geometry" />
        </mxCell>
        <mxCell id="v8VGOVytLQ8regFW3jZ1-14" value="&lt;font style=&quot;font-size: 20px;&quot;&gt;&lt;b&gt;PHChat (&amp;nbsp;&lt;/b&gt;&lt;b&gt;General&amp;nbsp;&lt;/b&gt;&lt;b&gt;Sequence Diagram )&amp;nbsp;&lt;/b&gt;&lt;/font&gt;" style="rounded=0;whiteSpace=wrap;html=1;shadow=1;strokeColor=#6c8ebf;fillColor=#dae8fc;" parent="1" vertex="1">
          <mxGeometry x="-29" y="196" width="1155" height="40" as="geometry" />
        </mxCell>
        <mxCell id="v8VGOVytLQ8regFW3jZ1-18" value="" style="html=1;points=[[0,0,0,0,5],[0,1,0,0,-5],[1,0,0,0,5],[1,1,0,0,-5]];perimeter=orthogonalPerimeter;outlineConnect=0;targetShapes=umlLifeline;portConstraint=eastwest;newEdgeStyle={&quot;curved&quot;:0,&quot;rounded&quot;:0};fillColor=#66B2FF;strokeColor=none;" parent="1" vertex="1">
          <mxGeometry x="399.5" y="1041" width="21" height="730" as="geometry" />
        </mxCell>
        <mxCell id="v8VGOVytLQ8regFW3jZ1-19" value="" style="html=1;points=[[0,0,0,0,5],[0,1,0,0,-5],[1,0,0,0,5],[1,1,0,0,-5]];perimeter=orthogonalPerimeter;outlineConnect=0;targetShapes=umlLifeline;portConstraint=eastwest;newEdgeStyle={&quot;curved&quot;:0,&quot;rounded&quot;:0};fillColor=#66B2FF;strokeColor=none;" parent="1" vertex="1">
          <mxGeometry x="709.5" y="1040" width="21" height="400" as="geometry" />
        </mxCell>
        <mxCell id="v8VGOVytLQ8regFW3jZ1-20" value="" style="html=1;points=[[0,0,0,0,5],[0,1,0,0,-5],[1,0,0,0,5],[1,1,0,0,-5]];perimeter=orthogonalPerimeter;outlineConnect=0;targetShapes=umlLifeline;portConstraint=eastwest;newEdgeStyle={&quot;curved&quot;:0,&quot;rounded&quot;:0};fillColor=#66B2FF;strokeColor=none;" parent="1" vertex="1">
          <mxGeometry x="1069.5" y="1041" width="21" height="730" as="geometry" />
        </mxCell>
        <mxCell id="v8VGOVytLQ8regFW3jZ1-21" value="" style="endArrow=none;dashed=1;html=1;rounded=0;fillColor=#f5f5f5;strokeColor=#666666;entryX=0.5;entryY=1;entryDx=0;entryDy=0;" parent="1" edge="1">
          <mxGeometry width="50" height="50" relative="1" as="geometry">
            <mxPoint x="1079" y="1040" as="sourcePoint" />
            <mxPoint x="1079" y="470" as="targetPoint" />
          </mxGeometry>
        </mxCell>
        <mxCell id="v8VGOVytLQ8regFW3jZ1-22" value="" style="endArrow=none;dashed=1;html=1;rounded=0;fillColor=#f5f5f5;strokeColor=#666666;" parent="1" source="v8VGOVytLQ8regFW3jZ1-19" edge="1">
          <mxGeometry width="50" height="50" relative="1" as="geometry">
            <mxPoint x="719" y="1020" as="sourcePoint" />
            <mxPoint x="719.34" y="800" as="targetPoint" />
          </mxGeometry>
        </mxCell>
        <mxCell id="v8VGOVytLQ8regFW3jZ1-24" value="" style="endArrow=none;dashed=1;html=1;rounded=0;fillColor=#f5f5f5;strokeColor=#666666;" parent="1" source="v8VGOVytLQ8regFW3jZ1-18" edge="1">
          <mxGeometry width="50" height="50" relative="1" as="geometry">
            <mxPoint x="410" y="980" as="sourcePoint" />
            <mxPoint x="409.51000000000005" y="800" as="targetPoint" />
          </mxGeometry>
        </mxCell>
        <mxCell id="v8VGOVytLQ8regFW3jZ1-25" value="" style="verticalLabelPosition=bottom;verticalAlign=top;html=1;shape=mxgraph.basic.smiley;fillColor=#66B2FF;fontColor=#ffffff;strokeColor=#006EAF;" parent="1" vertex="1">
          <mxGeometry x="117.5" y="405" width="34.5" height="30" as="geometry" />
        </mxCell>
        <mxCell id="v8VGOVytLQ8regFW3jZ1-30" value="" style="endArrow=classic;html=1;rounded=0;" parent="1" edge="1">
          <mxGeometry width="50" height="50" relative="1" as="geometry">
            <mxPoint x="146" y="660" as="sourcePoint" />
            <mxPoint x="400" y="660" as="targetPoint" />
          </mxGeometry>
        </mxCell>
        <mxCell id="v8VGOVytLQ8regFW3jZ1-31" value="Đăng nhập" style="edgeLabel;html=1;align=center;verticalAlign=middle;resizable=0;points=[];fontSize=23;labelBackgroundColor=#F2EEEA;horizontal=1;" parent="v8VGOVytLQ8regFW3jZ1-30" vertex="1" connectable="0">
          <mxGeometry x="-0.0079" y="2" relative="1" as="geometry">
            <mxPoint x="-1" as="offset" />
          </mxGeometry>
        </mxCell>
        <mxCell id="v8VGOVytLQ8regFW3jZ1-34" value="" style="endArrow=classic;html=1;rounded=0;" parent="1" edge="1">
          <mxGeometry width="50" height="50" relative="1" as="geometry">
            <mxPoint x="420.5" y="682" as="sourcePoint" />
            <mxPoint x="710" y="682" as="targetPoint" />
          </mxGeometry>
        </mxCell>
        <mxCell id="v8VGOVytLQ8regFW3jZ1-35" value="Gửi thông tin đăng nhập" style="edgeLabel;html=1;align=center;verticalAlign=middle;resizable=0;points=[];fontSize=23;labelBackgroundColor=#F2EEEA;horizontal=1;" parent="v8VGOVytLQ8regFW3jZ1-34" vertex="1" connectable="0">
          <mxGeometry x="-0.0079" y="2" relative="1" as="geometry">
            <mxPoint x="-1" as="offset" />
          </mxGeometry>
        </mxCell>
        <mxCell id="v8VGOVytLQ8regFW3jZ1-44" value="" style="endArrow=classic;html=1;rounded=0;edgeStyle=orthogonalEdgeStyle;curved=1;" parent="1" target="v8VGOVytLQ8regFW3jZ1-10" edge="1">
          <mxGeometry width="50" height="50" relative="1" as="geometry">
            <mxPoint x="730.5" y="720" as="sourcePoint" />
            <mxPoint x="900" y="780" as="targetPoint" />
            <Array as="points">
              <mxPoint x="810" y="721" />
              <mxPoint x="810" y="780" />
            </Array>
          </mxGeometry>
        </mxCell>
        <mxCell id="v8VGOVytLQ8regFW3jZ1-46" value="Text" style="edgeLabel;html=1;align=center;verticalAlign=middle;resizable=0;points=[];" parent="v8VGOVytLQ8regFW3jZ1-44" vertex="1" connectable="0">
          <mxGeometry x="-0.0382" y="-1" relative="1" as="geometry">
            <mxPoint as="offset" />
          </mxGeometry>
        </mxCell>
        <mxCell id="v8VGOVytLQ8regFW3jZ1-47" value="&lt;span style=&quot;background-color: rgb(242, 238, 234); font-size: 19px;&quot;&gt;Xác thực tài khoản&lt;/span&gt;" style="edgeLabel;html=1;align=center;verticalAlign=middle;resizable=0;points=[];fontSize=19;" parent="v8VGOVytLQ8regFW3jZ1-44" vertex="1" connectable="0">
          <mxGeometry x="-0.0535" relative="1" as="geometry">
            <mxPoint x="6" y="2" as="offset" />
          </mxGeometry>
        </mxCell>
        <mxCell id="v8VGOVytLQ8regFW3jZ1-48" value="" style="endArrow=classic;html=1;rounded=0;" parent="1" edge="1">
          <mxGeometry width="50" height="50" relative="1" as="geometry">
            <mxPoint x="720" y="870" as="sourcePoint" />
            <mxPoint x="410" y="870" as="targetPoint" />
          </mxGeometry>
        </mxCell>
        <mxCell id="v8VGOVytLQ8regFW3jZ1-49" value="Trả về thông báo lỗi" style="edgeLabel;html=1;align=center;verticalAlign=middle;resizable=0;points=[];fontSize=20;labelBackgroundColor=#F2EEEA;horizontal=1;" parent="v8VGOVytLQ8regFW3jZ1-48" vertex="1" connectable="0">
          <mxGeometry x="-0.0079" y="2" relative="1" as="geometry">
            <mxPoint x="-1" as="offset" />
          </mxGeometry>
        </mxCell>
        <mxCell id="v8VGOVytLQ8regFW3jZ1-50" value="" style="endArrow=classic;html=1;rounded=0;" parent="1" edge="1">
          <mxGeometry width="50" height="50" relative="1" as="geometry">
            <mxPoint x="720" y="980" as="sourcePoint" />
            <mxPoint x="410" y="980" as="targetPoint" />
          </mxGeometry>
        </mxCell>
        <mxCell id="v8VGOVytLQ8regFW3jZ1-51" value="Trả về thông tin người dùng" style="edgeLabel;html=1;align=center;verticalAlign=middle;resizable=0;points=[];fontSize=20;labelBackgroundColor=#F2EEEA;horizontal=1;" parent="v8VGOVytLQ8regFW3jZ1-50" vertex="1" connectable="0">
          <mxGeometry x="-0.0079" y="2" relative="1" as="geometry">
            <mxPoint x="-1" as="offset" />
          </mxGeometry>
        </mxCell>
        <mxCell id="v8VGOVytLQ8regFW3jZ1-52" value="&lt;font style=&quot;font-size: 15px;&quot;&gt;&lt;i&gt;Xác thực không thành công&lt;/i&gt;&lt;/font&gt;" style="text;html=1;align=center;verticalAlign=middle;resizable=0;points=[];autosize=1;strokeColor=none;fillColor=none;" parent="1" vertex="1">
          <mxGeometry x="463" y="824" width="210" height="30" as="geometry" />
        </mxCell>
        <mxCell id="v8VGOVytLQ8regFW3jZ1-53" value="&lt;font style=&quot;font-size: 15px;&quot;&gt;&lt;i&gt;Xác thực thành công&lt;/i&gt;&lt;/font&gt;" style="text;html=1;align=center;verticalAlign=middle;resizable=0;points=[];autosize=1;strokeColor=none;fillColor=none;" parent="1" vertex="1">
          <mxGeometry x="484" y="934" width="160" height="30" as="geometry" />
        </mxCell>
        <mxCell id="v8VGOVytLQ8regFW3jZ1-59" value="" style="endArrow=classic;html=1;rounded=0;" parent="1" edge="1">
          <mxGeometry width="50" height="50" relative="1" as="geometry">
            <mxPoint x="145.5" y="1270" as="sourcePoint" />
            <mxPoint x="399.5" y="1270" as="targetPoint" />
          </mxGeometry>
        </mxCell>
        <mxCell id="v8VGOVytLQ8regFW3jZ1-60" value="Kết bạn với người khác" style="edgeLabel;html=1;align=center;verticalAlign=middle;resizable=0;points=[];fontSize=20;labelBackgroundColor=#F2EEEA;horizontal=1;" parent="v8VGOVytLQ8regFW3jZ1-59" vertex="1" connectable="0">
          <mxGeometry x="-0.0079" y="2" relative="1" as="geometry">
            <mxPoint x="-1" as="offset" />
          </mxGeometry>
        </mxCell>
        <mxCell id="v8VGOVytLQ8regFW3jZ1-64" value="" style="endArrow=classic;html=1;rounded=0;exitX=0.976;exitY=0.738;exitDx=0;exitDy=0;exitPerimeter=0;" parent="1" source="v8VGOVytLQ8regFW3jZ1-18" target="v8VGOVytLQ8regFW3jZ1-103" edge="1">
          <mxGeometry width="50" height="50" relative="1" as="geometry">
            <mxPoint x="430" y="1580" as="sourcePoint" />
            <mxPoint x="690" y="1640" as="targetPoint" />
          </mxGeometry>
        </mxCell>
        <mxCell id="v8VGOVytLQ8regFW3jZ1-65" value="Người dùng nhập và gửi tin nhắn" style="edgeLabel;html=1;align=center;verticalAlign=middle;resizable=0;points=[];fontSize=18;labelBackgroundColor=#F2EEEA;horizontal=1;" parent="v8VGOVytLQ8regFW3jZ1-64" vertex="1" connectable="0">
          <mxGeometry x="-0.0079" y="2" relative="1" as="geometry">
            <mxPoint x="-4" y="2" as="offset" />
          </mxGeometry>
        </mxCell>
        <mxCell id="v8VGOVytLQ8regFW3jZ1-66" value="" style="endArrow=classic;html=1;rounded=0;" parent="1" edge="1">
          <mxGeometry width="50" height="50" relative="1" as="geometry">
            <mxPoint x="730.5" y="1320" as="sourcePoint" />
            <mxPoint x="1069.5" y="1320" as="targetPoint" />
            <Array as="points" />
          </mxGeometry>
        </mxCell>
        <mxCell id="v8VGOVytLQ8regFW3jZ1-67" value="Xác nhận kết bạn thành công" style="edgeLabel;html=1;align=center;verticalAlign=middle;resizable=0;points=[];fontSize=20;labelBackgroundColor=#F2EEEA;horizontal=1;" parent="v8VGOVytLQ8regFW3jZ1-66" vertex="1" connectable="0">
          <mxGeometry x="-0.0079" y="2" relative="1" as="geometry">
            <mxPoint x="2" y="2" as="offset" />
          </mxGeometry>
        </mxCell>
        <mxCell id="v8VGOVytLQ8regFW3jZ1-68" value="" style="endArrow=classic;html=1;rounded=0;" parent="1" edge="1">
          <mxGeometry width="50" height="50" relative="1" as="geometry">
            <mxPoint x="1069.5" y="1536.9999999999998" as="sourcePoint" />
            <mxPoint x="730.5" y="1537" as="targetPoint" />
          </mxGeometry>
        </mxCell>
        <mxCell id="v8VGOVytLQ8regFW3jZ1-69" value="Thiết lập kết nối" style="edgeLabel;html=1;align=center;verticalAlign=middle;resizable=0;points=[];fontSize=20;labelBackgroundColor=#F2EEEA;horizontal=1;" parent="v8VGOVytLQ8regFW3jZ1-68" vertex="1" connectable="0">
          <mxGeometry x="-0.0079" y="2" relative="1" as="geometry">
            <mxPoint x="-1" as="offset" />
          </mxGeometry>
        </mxCell>
        <mxCell id="v8VGOVytLQ8regFW3jZ1-70" value="" style="shape=umlDestroy;whiteSpace=wrap;html=1;strokeWidth=3;targetShapes=umlLifeline;fillColor=#e51400;fontColor=#ffffff;strokeColor=#B20000;" parent="1" vertex="1">
          <mxGeometry x="459" y="834.5" width="10" height="9" as="geometry" />
        </mxCell>
        <mxCell id="v8VGOVytLQ8regFW3jZ1-72" value="" style="verticalLabelPosition=bottom;verticalAlign=top;html=1;shape=mxgraph.basic.tick;fillColor=#33FF33;" parent="1" vertex="1">
          <mxGeometry x="473" y="934" width="17" height="21" as="geometry" />
        </mxCell>
        <mxCell id="v8VGOVytLQ8regFW3jZ1-77" value="" style="endArrow=classic;html=1;rounded=0;edgeStyle=orthogonalEdgeStyle;curved=1;" parent="1" edge="1">
          <mxGeometry width="50" height="50" relative="1" as="geometry">
            <mxPoint x="730.5" y="1603" as="sourcePoint" />
            <mxPoint x="731" y="1663" as="targetPoint" />
            <Array as="points">
              <mxPoint x="830" y="1604" />
              <mxPoint x="830" y="1663" />
            </Array>
          </mxGeometry>
        </mxCell>
        <mxCell id="v8VGOVytLQ8regFW3jZ1-78" value="Text" style="edgeLabel;html=1;align=center;verticalAlign=middle;resizable=0;points=[];" parent="v8VGOVytLQ8regFW3jZ1-77" vertex="1" connectable="0">
          <mxGeometry x="-0.0382" y="-1" relative="1" as="geometry">
            <mxPoint as="offset" />
          </mxGeometry>
        </mxCell>
        <mxCell id="v8VGOVytLQ8regFW3jZ1-79" value="&lt;span style=&quot;background-color: rgb(242, 238, 234); font-size: 19px;&quot;&gt;Lưu thông tin tin nhắn&lt;/span&gt;" style="edgeLabel;html=1;align=center;verticalAlign=middle;resizable=0;points=[];fontSize=19;" parent="v8VGOVytLQ8regFW3jZ1-77" vertex="1" connectable="0">
          <mxGeometry x="-0.0535" relative="1" as="geometry">
            <mxPoint x="6" y="2" as="offset" />
          </mxGeometry>
        </mxCell>
        <mxCell id="v8VGOVytLQ8regFW3jZ1-80" value="" style="endArrow=classic;html=1;rounded=0;" parent="1" edge="1">
          <mxGeometry width="50" height="50" relative="1" as="geometry">
            <mxPoint x="1069.5" y="1690" as="sourcePoint" />
            <mxPoint x="730" y="1690" as="targetPoint" />
          </mxGeometry>
        </mxCell>
        <mxCell id="v8VGOVytLQ8regFW3jZ1-81" value="Trả tin nhắn về Backend" style="edgeLabel;html=1;align=center;verticalAlign=middle;resizable=0;points=[];fontSize=20;labelBackgroundColor=#F2EEEA;horizontal=1;" parent="v8VGOVytLQ8regFW3jZ1-80" vertex="1" connectable="0">
          <mxGeometry x="-0.0079" y="2" relative="1" as="geometry">
            <mxPoint x="-1" as="offset" />
          </mxGeometry>
        </mxCell>
        <mxCell id="v8VGOVytLQ8regFW3jZ1-82" value="" style="endArrow=classic;html=1;rounded=0;" parent="1" edge="1">
          <mxGeometry width="50" height="50" relative="1" as="geometry">
            <mxPoint x="709.5" y="1690" as="sourcePoint" />
            <mxPoint x="420" y="1690" as="targetPoint" />
          </mxGeometry>
        </mxCell>
        <mxCell id="v8VGOVytLQ8regFW3jZ1-83" value="Hiển thị tin nhắn trên Fontend" style="edgeLabel;html=1;align=center;verticalAlign=middle;resizable=0;points=[];fontSize=19;labelBackgroundColor=#F2EEEA;horizontal=1;" parent="v8VGOVytLQ8regFW3jZ1-82" vertex="1" connectable="0">
          <mxGeometry x="-0.0079" y="2" relative="1" as="geometry">
            <mxPoint x="3" y="-2" as="offset" />
          </mxGeometry>
        </mxCell>
        <mxCell id="v8VGOVytLQ8regFW3jZ1-85" value="" style="endArrow=classic;html=1;rounded=0;" parent="1" edge="1">
          <mxGeometry width="50" height="50" relative="1" as="geometry">
            <mxPoint x="145.5" y="1080" as="sourcePoint" />
            <mxPoint x="399.5" y="1080" as="targetPoint" />
          </mxGeometry>
        </mxCell>
        <mxCell id="v8VGOVytLQ8regFW3jZ1-86" value="&lt;font style=&quot;font-size: 20px;&quot;&gt;Nhập thông tin tìm kiếm&amp;nbsp;&lt;/font&gt;&lt;div&gt;&lt;font style=&quot;font-size: 20px;&quot;&gt;người dùng&lt;/font&gt;&lt;/div&gt;" style="edgeLabel;html=1;align=center;verticalAlign=middle;resizable=0;points=[];fontSize=14;labelBackgroundColor=#F2EEEA;horizontal=1;" parent="v8VGOVytLQ8regFW3jZ1-85" vertex="1" connectable="0">
          <mxGeometry x="-0.0079" y="2" relative="1" as="geometry">
            <mxPoint x="-2" y="2" as="offset" />
          </mxGeometry>
        </mxCell>
        <mxCell id="v8VGOVytLQ8regFW3jZ1-87" value="" style="endArrow=classic;html=1;rounded=0;" parent="1" edge="1">
          <mxGeometry width="50" height="50" relative="1" as="geometry">
            <mxPoint x="420.5" y="1104" as="sourcePoint" />
            <mxPoint x="710" y="1104" as="targetPoint" />
            <Array as="points">
              <mxPoint x="660" y="1104" />
            </Array>
          </mxGeometry>
        </mxCell>
        <mxCell id="v8VGOVytLQ8regFW3jZ1-88" value="&lt;font style=&quot;font-size: 20px;&quot;&gt;Tìm kiếm người dùng&lt;/font&gt;" style="edgeLabel;html=1;align=center;verticalAlign=middle;resizable=0;points=[];fontSize=23;labelBackgroundColor=#F2EEEA;horizontal=1;" parent="v8VGOVytLQ8regFW3jZ1-87" vertex="1" connectable="0">
          <mxGeometry x="-0.0079" y="2" relative="1" as="geometry">
            <mxPoint x="2" y="2" as="offset" />
          </mxGeometry>
        </mxCell>
        <mxCell id="v8VGOVytLQ8regFW3jZ1-89" value="" style="endArrow=classic;html=1;rounded=0;edgeStyle=orthogonalEdgeStyle;curved=1;" parent="1" edge="1">
          <mxGeometry width="50" height="50" relative="1" as="geometry">
            <mxPoint x="730.5" y="1122" as="sourcePoint" />
            <mxPoint x="731" y="1182" as="targetPoint" />
            <Array as="points">
              <mxPoint x="830" y="1123" />
              <mxPoint x="830" y="1182" />
            </Array>
          </mxGeometry>
        </mxCell>
        <mxCell id="v8VGOVytLQ8regFW3jZ1-90" value="Text" style="edgeLabel;html=1;align=center;verticalAlign=middle;resizable=0;points=[];" parent="v8VGOVytLQ8regFW3jZ1-89" vertex="1" connectable="0">
          <mxGeometry x="-0.0382" y="-1" relative="1" as="geometry">
            <mxPoint as="offset" />
          </mxGeometry>
        </mxCell>
        <mxCell id="v8VGOVytLQ8regFW3jZ1-91" value="&lt;span style=&quot;font-size: 17px;&quot;&gt;Xác thực người dùng và kiểm&lt;/span&gt;&lt;div style=&quot;font-size: 17px;&quot;&gt;&lt;span style=&quot;font-size: 17px;&quot;&gt;tra thông tin&lt;/span&gt;&lt;/div&gt;" style="edgeLabel;html=1;align=center;verticalAlign=middle;resizable=0;points=[];fontSize=17;labelBackgroundColor=#F2EEEA;" parent="v8VGOVytLQ8regFW3jZ1-89" vertex="1" connectable="0">
          <mxGeometry x="-0.0535" relative="1" as="geometry">
            <mxPoint x="20" y="5" as="offset" />
          </mxGeometry>
        </mxCell>
        <mxCell id="v8VGOVytLQ8regFW3jZ1-92" value="" style="endArrow=classic;html=1;rounded=0;" parent="1" edge="1">
          <mxGeometry width="50" height="50" relative="1" as="geometry">
            <mxPoint x="710" y="1206" as="sourcePoint" />
            <mxPoint x="420.5" y="1206" as="targetPoint" />
          </mxGeometry>
        </mxCell>
        <mxCell id="v8VGOVytLQ8regFW3jZ1-93" value="Trả về thông tin người&lt;div&gt;dùng tìm kiếm&lt;/div&gt;" style="edgeLabel;html=1;align=center;verticalAlign=middle;resizable=0;points=[];fontSize=20;labelBackgroundColor=#F2EEEA;horizontal=1;" parent="v8VGOVytLQ8regFW3jZ1-92" vertex="1" connectable="0">
          <mxGeometry x="-0.0079" y="2" relative="1" as="geometry">
            <mxPoint x="-1" as="offset" />
          </mxGeometry>
        </mxCell>
        <mxCell id="v8VGOVytLQ8regFW3jZ1-97" value="" style="endArrow=classic;html=1;rounded=0;" parent="1" edge="1">
          <mxGeometry width="50" height="50" relative="1" as="geometry">
            <mxPoint x="420.5" y="1290" as="sourcePoint" />
            <mxPoint x="710" y="1290" as="targetPoint" />
            <Array as="points">
              <mxPoint x="660" y="1290" />
            </Array>
          </mxGeometry>
        </mxCell>
        <mxCell id="v8VGOVytLQ8regFW3jZ1-98" value="Gửi yêu cầu kết bạn" style="edgeLabel;html=1;align=center;verticalAlign=middle;resizable=0;points=[];fontSize=20;labelBackgroundColor=#F2EEEA;horizontal=1;" parent="v8VGOVytLQ8regFW3jZ1-97" vertex="1" connectable="0">
          <mxGeometry x="-0.0079" y="2" relative="1" as="geometry">
            <mxPoint x="2" y="2" as="offset" />
          </mxGeometry>
        </mxCell>
        <mxCell id="v8VGOVytLQ8regFW3jZ1-99" value="" style="endArrow=classic;html=1;rounded=0;" parent="1" edge="1">
          <mxGeometry width="50" height="50" relative="1" as="geometry">
            <mxPoint x="1070" y="1360" as="sourcePoint" />
            <mxPoint x="730.5" y="1360" as="targetPoint" />
          </mxGeometry>
        </mxCell>
        <mxCell id="v8VGOVytLQ8regFW3jZ1-100" value="Cập nhật danh sách bạn bè" style="edgeLabel;html=1;align=center;verticalAlign=middle;resizable=0;points=[];fontSize=20;labelBackgroundColor=#F2EEEA;horizontal=1;" parent="v8VGOVytLQ8regFW3jZ1-99" vertex="1" connectable="0">
          <mxGeometry x="-0.0079" y="2" relative="1" as="geometry">
            <mxPoint x="-1" y="-4" as="offset" />
          </mxGeometry>
        </mxCell>
        <mxCell id="v8VGOVytLQ8regFW3jZ1-101" value="" style="endArrow=classic;html=1;rounded=0;" parent="1" edge="1">
          <mxGeometry width="50" height="50" relative="1" as="geometry">
            <mxPoint x="708.75" y="1380" as="sourcePoint" />
            <mxPoint x="419.25" y="1380" as="targetPoint" />
          </mxGeometry>
        </mxCell>
        <mxCell id="v8VGOVytLQ8regFW3jZ1-102" value="Hiển thị thông tin cập&lt;div&gt;nhật ở cả 2 người dùng&lt;/div&gt;" style="edgeLabel;html=1;align=center;verticalAlign=middle;resizable=0;points=[];fontSize=20;labelBackgroundColor=#F2EEEA;horizontal=1;" parent="v8VGOVytLQ8regFW3jZ1-101" vertex="1" connectable="0">
          <mxGeometry x="-0.0079" y="2" relative="1" as="geometry">
            <mxPoint x="-1" as="offset" />
          </mxGeometry>
        </mxCell>
        <mxCell id="v8VGOVytLQ8regFW3jZ1-103" value="" style="html=1;points=[[0,0,0,0,5],[0,1,0,0,-5],[1,0,0,0,5],[1,1,0,0,-5]];perimeter=orthogonalPerimeter;outlineConnect=0;targetShapes=umlLifeline;portConstraint=eastwest;newEdgeStyle={&quot;curved&quot;:0,&quot;rounded&quot;:0};fillColor=#66B2FF;strokeColor=none;" parent="1" vertex="1">
          <mxGeometry x="709.5" y="1518" width="21" height="250" as="geometry" />
        </mxCell>
        <mxCell id="v8VGOVytLQ8regFW3jZ1-105" value="" style="endArrow=classic;html=1;rounded=0;" parent="1" edge="1">
          <mxGeometry width="50" height="50" relative="1" as="geometry">
            <mxPoint x="145.5" y="1558" as="sourcePoint" />
            <mxPoint x="399.5" y="1558" as="targetPoint" />
          </mxGeometry>
        </mxCell>
        <mxCell id="v8VGOVytLQ8regFW3jZ1-106" value="Nhắn tin với người khác" style="edgeLabel;html=1;align=center;verticalAlign=middle;resizable=0;points=[];fontSize=20;labelBackgroundColor=#F2EEEA;horizontal=1;" parent="v8VGOVytLQ8regFW3jZ1-105" vertex="1" connectable="0">
          <mxGeometry x="-0.0079" y="2" relative="1" as="geometry">
            <mxPoint x="-1" as="offset" />
          </mxGeometry>
        </mxCell>
        <mxCell id="v8VGOVytLQ8regFW3jZ1-107" value="" style="endArrow=classic;html=1;rounded=0;exitX=0.976;exitY=0.738;exitDx=0;exitDy=0;exitPerimeter=0;" parent="1" target="v8VGOVytLQ8regFW3jZ1-20" edge="1">
          <mxGeometry width="50" height="50" relative="1" as="geometry">
            <mxPoint x="730.5" y="1580" as="sourcePoint" />
            <mxPoint x="1020.5" y="1580" as="targetPoint" />
          </mxGeometry>
        </mxCell>
        <mxCell id="v8VGOVytLQ8regFW3jZ1-108" value="Gửi tin nhắn đến Firebase" style="edgeLabel;html=1;align=center;verticalAlign=middle;resizable=0;points=[];fontSize=19;labelBackgroundColor=#F2EEEA;horizontal=1;" parent="v8VGOVytLQ8regFW3jZ1-107" vertex="1" connectable="0">
          <mxGeometry x="-0.0079" y="2" relative="1" as="geometry">
            <mxPoint x="-4" y="2" as="offset" />
          </mxGeometry>
        </mxCell>
        <mxCell id="v8VGOVytLQ8regFW3jZ1-109" value="" style="html=1;points=[[0,0,0,0,5],[0,1,0,0,-5],[1,0,0,0,5],[1,1,0,0,-5]];perimeter=orthogonalPerimeter;outlineConnect=0;targetShapes=umlLifeline;portConstraint=eastwest;newEdgeStyle={&quot;curved&quot;:0,&quot;rounded&quot;:0};fillColor=#66B2FF;strokeColor=none;" parent="1" vertex="1">
          <mxGeometry x="399.5" y="1771" width="21" height="409" as="geometry" />
        </mxCell>
        <mxCell id="v8VGOVytLQ8regFW3jZ1-110" value="" style="html=1;points=[[0,0,0,0,5],[0,1,0,0,-5],[1,0,0,0,5],[1,1,0,0,-5]];perimeter=orthogonalPerimeter;outlineConnect=0;targetShapes=umlLifeline;portConstraint=eastwest;newEdgeStyle={&quot;curved&quot;:0,&quot;rounded&quot;:0};fillColor=#66B2FF;strokeColor=none;" parent="1" vertex="1">
          <mxGeometry x="709.5" y="1768" width="21" height="412" as="geometry" />
        </mxCell>
        <mxCell id="v8VGOVytLQ8regFW3jZ1-111" value="" style="html=1;points=[[0,0,0,0,5],[0,1,0,0,-5],[1,0,0,0,5],[1,1,0,0,-5]];perimeter=orthogonalPerimeter;outlineConnect=0;targetShapes=umlLifeline;portConstraint=eastwest;newEdgeStyle={&quot;curved&quot;:0,&quot;rounded&quot;:0};fillColor=#66B2FF;strokeColor=none;" parent="1" vertex="1">
          <mxGeometry x="1069.5" y="1771" width="21" height="409" as="geometry" />
        </mxCell>
        <mxCell id="v8VGOVytLQ8regFW3jZ1-113" value="" style="endArrow=classic;html=1;rounded=0;" parent="1" edge="1">
          <mxGeometry width="50" height="50" relative="1" as="geometry">
            <mxPoint x="146" y="1746" as="sourcePoint" />
            <mxPoint x="399.5" y="1746" as="targetPoint" />
          </mxGeometry>
        </mxCell>
        <mxCell id="v8VGOVytLQ8regFW3jZ1-114" value="Tạo nhóm chat" style="edgeLabel;html=1;align=center;verticalAlign=middle;resizable=0;points=[];fontSize=20;labelBackgroundColor=#F2EEEA;horizontal=1;" parent="v8VGOVytLQ8regFW3jZ1-113" vertex="1" connectable="0">
          <mxGeometry x="-0.0079" y="2" relative="1" as="geometry">
            <mxPoint x="-1" as="offset" />
          </mxGeometry>
        </mxCell>
        <mxCell id="v8VGOVytLQ8regFW3jZ1-115" value="" style="endArrow=classic;html=1;rounded=0;exitX=0.976;exitY=0.738;exitDx=0;exitDy=0;exitPerimeter=0;" parent="1" edge="1">
          <mxGeometry width="50" height="50" relative="1" as="geometry">
            <mxPoint x="421" y="1771" as="sourcePoint" />
            <mxPoint x="711" y="1771" as="targetPoint" />
          </mxGeometry>
        </mxCell>
        <mxCell id="v8VGOVytLQ8regFW3jZ1-116" value="Yêu cầu tạo nhóm chat mới" style="edgeLabel;html=1;align=center;verticalAlign=middle;resizable=0;points=[];fontSize=19;labelBackgroundColor=#F2EEEA;horizontal=1;" parent="v8VGOVytLQ8regFW3jZ1-115" vertex="1" connectable="0">
          <mxGeometry x="-0.0079" y="2" relative="1" as="geometry">
            <mxPoint x="-4" y="2" as="offset" />
          </mxGeometry>
        </mxCell>
        <mxCell id="v8VGOVytLQ8regFW3jZ1-118" value="" style="endArrow=none;dashed=1;html=1;rounded=0;fillColor=#f5f5f5;strokeColor=#666666;" parent="1" edge="1">
          <mxGeometry width="50" height="50" relative="1" as="geometry">
            <mxPoint x="719" y="1520" as="sourcePoint" />
            <mxPoint x="719" y="1440" as="targetPoint" />
          </mxGeometry>
        </mxCell>
        <mxCell id="v8VGOVytLQ8regFW3jZ1-119" value="" style="endArrow=classic;html=1;rounded=0;exitX=0.976;exitY=0.738;exitDx=0;exitDy=0;exitPerimeter=0;" parent="1" edge="1">
          <mxGeometry width="50" height="50" relative="1" as="geometry">
            <mxPoint x="730.5" y="1810" as="sourcePoint" />
            <mxPoint x="1070" y="1810" as="targetPoint" />
          </mxGeometry>
        </mxCell>
        <mxCell id="v8VGOVytLQ8regFW3jZ1-120" value="Lưu thông tin nhóm chat mới&amp;nbsp;&lt;div style=&quot;font-size: 19px;&quot;&gt;vào Firebase&lt;/div&gt;" style="edgeLabel;html=1;align=center;verticalAlign=middle;resizable=0;points=[];fontSize=19;labelBackgroundColor=#F2EEEA;horizontal=1;" parent="v8VGOVytLQ8regFW3jZ1-119" vertex="1" connectable="0">
          <mxGeometry x="-0.0079" y="2" relative="1" as="geometry">
            <mxPoint x="-4" y="2" as="offset" />
          </mxGeometry>
        </mxCell>
        <mxCell id="v8VGOVytLQ8regFW3jZ1-121" value="" style="endArrow=classic;html=1;rounded=0;" parent="1" edge="1">
          <mxGeometry width="50" height="50" relative="1" as="geometry">
            <mxPoint x="1070" y="1861" as="sourcePoint" />
            <mxPoint x="730.5" y="1861" as="targetPoint" />
          </mxGeometry>
        </mxCell>
        <mxCell id="v8VGOVytLQ8regFW3jZ1-122" value="Xác nhận việc lưu nhóm chat" style="edgeLabel;html=1;align=center;verticalAlign=middle;resizable=0;points=[];fontSize=20;labelBackgroundColor=#F2EEEA;horizontal=1;" parent="v8VGOVytLQ8regFW3jZ1-121" vertex="1" connectable="0">
          <mxGeometry x="-0.0079" y="2" relative="1" as="geometry">
            <mxPoint x="-4" y="-2" as="offset" />
          </mxGeometry>
        </mxCell>
        <mxCell id="v8VGOVytLQ8regFW3jZ1-123" value="" style="endArrow=classic;html=1;rounded=0;" parent="1" edge="1">
          <mxGeometry width="50" height="50" relative="1" as="geometry">
            <mxPoint x="709.5" y="1895" as="sourcePoint" />
            <mxPoint x="420.5" y="1895" as="targetPoint" />
          </mxGeometry>
        </mxCell>
        <mxCell id="v8VGOVytLQ8regFW3jZ1-124" value="Hiển thị thông tin nhóm chat&amp;nbsp;&lt;div style=&quot;font-size: 19px;&quot;&gt;mới trên giao diện&lt;/div&gt;" style="edgeLabel;html=1;align=center;verticalAlign=middle;resizable=0;points=[];fontSize=19;labelBackgroundColor=#F2EEEA;horizontal=1;" parent="v8VGOVytLQ8regFW3jZ1-123" vertex="1" connectable="0">
          <mxGeometry x="-0.0079" y="2" relative="1" as="geometry">
            <mxPoint x="3" y="-2" as="offset" />
          </mxGeometry>
        </mxCell>
        <mxCell id="v8VGOVytLQ8regFW3jZ1-125" value="" style="endArrow=classic;html=1;rounded=0;" parent="1" edge="1">
          <mxGeometry width="50" height="50" relative="1" as="geometry">
            <mxPoint x="146" y="1970" as="sourcePoint" />
            <mxPoint x="399.5" y="1970" as="targetPoint" />
          </mxGeometry>
        </mxCell>
        <mxCell id="v8VGOVytLQ8regFW3jZ1-126" value="Thêm người dùng vào nhóm" style="edgeLabel;html=1;align=center;verticalAlign=middle;resizable=0;points=[];fontSize=18;labelBackgroundColor=#F2EEEA;horizontal=1;" parent="v8VGOVytLQ8regFW3jZ1-125" vertex="1" connectable="0">
          <mxGeometry x="-0.0079" y="2" relative="1" as="geometry">
            <mxPoint x="-1" as="offset" />
          </mxGeometry>
        </mxCell>
        <mxCell id="v8VGOVytLQ8regFW3jZ1-127" value="" style="endArrow=classic;html=1;rounded=0;exitX=0.976;exitY=0.738;exitDx=0;exitDy=0;exitPerimeter=0;" parent="1" edge="1">
          <mxGeometry width="50" height="50" relative="1" as="geometry">
            <mxPoint x="419" y="2000" as="sourcePoint" />
            <mxPoint x="709" y="2000" as="targetPoint" />
          </mxGeometry>
        </mxCell>
        <mxCell id="v8VGOVytLQ8regFW3jZ1-128" value="Gửi yêu cầu thêm người dùng" style="edgeLabel;html=1;align=center;verticalAlign=middle;resizable=0;points=[];fontSize=19;labelBackgroundColor=#F2EEEA;horizontal=1;" parent="v8VGOVytLQ8regFW3jZ1-127" vertex="1" connectable="0">
          <mxGeometry x="-0.0079" y="2" relative="1" as="geometry">
            <mxPoint x="-4" y="2" as="offset" />
          </mxGeometry>
        </mxCell>
        <mxCell id="v8VGOVytLQ8regFW3jZ1-129" value="" style="endArrow=classic;html=1;rounded=0;exitX=0.976;exitY=0.738;exitDx=0;exitDy=0;exitPerimeter=0;" parent="1" edge="1">
          <mxGeometry width="50" height="50" relative="1" as="geometry">
            <mxPoint x="730" y="2030" as="sourcePoint" />
            <mxPoint x="1069.5" y="2030" as="targetPoint" />
          </mxGeometry>
        </mxCell>
        <mxCell id="v8VGOVytLQ8regFW3jZ1-130" value="Cập nhật danh sách thành viên" style="edgeLabel;html=1;align=center;verticalAlign=middle;resizable=0;points=[];fontSize=19;labelBackgroundColor=#F2EEEA;horizontal=1;" parent="v8VGOVytLQ8regFW3jZ1-129" vertex="1" connectable="0">
          <mxGeometry x="-0.0079" y="2" relative="1" as="geometry">
            <mxPoint x="-4" y="2" as="offset" />
          </mxGeometry>
        </mxCell>
        <mxCell id="v8VGOVytLQ8regFW3jZ1-131" value="" style="endArrow=classic;html=1;rounded=0;" parent="1" edge="1">
          <mxGeometry width="50" height="50" relative="1" as="geometry">
            <mxPoint x="1069.5" y="2080" as="sourcePoint" />
            <mxPoint x="730" y="2080" as="targetPoint" />
          </mxGeometry>
        </mxCell>
        <mxCell id="v8VGOVytLQ8regFW3jZ1-132" value="Xác nhận việc cập nhật thành công" style="edgeLabel;html=1;align=center;verticalAlign=middle;resizable=0;points=[];fontSize=19;labelBackgroundColor=#F2EEEA;horizontal=1;" parent="v8VGOVytLQ8regFW3jZ1-131" vertex="1" connectable="0">
          <mxGeometry x="-0.0079" y="2" relative="1" as="geometry">
            <mxPoint x="3" y="-3" as="offset" />
          </mxGeometry>
        </mxCell>
        <mxCell id="v8VGOVytLQ8regFW3jZ1-133" value="" style="endArrow=classic;html=1;rounded=0;" parent="1" edge="1">
          <mxGeometry width="50" height="50" relative="1" as="geometry">
            <mxPoint x="709.5" y="2120" as="sourcePoint" />
            <mxPoint x="420.5" y="2120" as="targetPoint" />
          </mxGeometry>
        </mxCell>
        <mxCell id="v8VGOVytLQ8regFW3jZ1-134" value="Hiển thị thông tin cập nhật&lt;div&gt;về nhóm chính&lt;/div&gt;" style="edgeLabel;html=1;align=center;verticalAlign=middle;resizable=0;points=[];fontSize=19;labelBackgroundColor=#F2EEEA;horizontal=1;" parent="v8VGOVytLQ8regFW3jZ1-133" vertex="1" connectable="0">
          <mxGeometry x="-0.0079" y="2" relative="1" as="geometry">
            <mxPoint x="3" y="-2" as="offset" />
          </mxGeometry>
        </mxCell>
        <mxCell id="_GPbVLTs7vNljHUmb9-W-1" value="" style="endArrow=classic;html=1;rounded=0;" parent="1" target="v8VGOVytLQ8regFW3jZ1-20" edge="1">
          <mxGeometry width="50" height="50" relative="1" as="geometry">
            <mxPoint x="423.25" y="1478" as="sourcePoint" />
            <mxPoint x="712.75" y="1478" as="targetPoint" />
            <Array as="points">
              <mxPoint x="662.75" y="1478" />
            </Array>
          </mxGeometry>
        </mxCell>
        <mxCell id="_GPbVLTs7vNljHUmb9-W-2" value="Chuyển hướng đến phòng chat" style="edgeLabel;html=1;align=center;verticalAlign=middle;resizable=0;points=[];fontSize=20;labelBackgroundColor=#F2EEEA;horizontal=1;" parent="_GPbVLTs7vNljHUmb9-W-1" vertex="1" connectable="0">
          <mxGeometry x="-0.0079" y="2" relative="1" as="geometry">
            <mxPoint x="-15" y="2" as="offset" />
          </mxGeometry>
        </mxCell>
        <mxCell id="_GPbVLTs7vNljHUmb9-W-3" value="" style="rounded=0;whiteSpace=wrap;html=1;" parent="1" vertex="1">
          <mxGeometry x="1127" y="196" width="183" height="153" as="geometry" />
        </mxCell>
        <mxCell id="_GPbVLTs7vNljHUmb9-W-4" value="" style="shape=image;verticalLabelPosition=bottom;labelBackgroundColor=default;verticalAlign=top;aspect=fixed;imageAspect=0;image=https://upload.wikimedia.org/wikipedia/vi/1/19/Untitled-1.png;imageBackground=#E6D0DE;imageBorder=#ffffff;strokeWidth=6;shadow=0;" parent="1" vertex="1">
          <mxGeometry x="1148.25" y="202.25" width="142.75" height="142.75" as="geometry" />
        </mxCell>
      </root>
    </mxGraphModel>
  </diagram>
</mxfile>
